<svg width="144" height="67" viewBox="0 0 144 67" xmlns="http://www.w3.org/2000/svg"><title>Slice 1</title><g fill="none" fill-rule="evenodd"><path d="M10.543 61.961c-.302 2.549-2.127 4.117-4.78 4.117-3.182 0-5.233-2.369-5.233-6.047 0-3.605 2.096-5.972 5.278-5.972 2.593 0 4.508 1.644 4.735 4.072H8.839c-.257-1.764-1.358-2.76-3.046-2.76-2.156 0-3.605 1.869-3.605 4.629 0 2.881 1.403 4.734 3.575 4.734 1.674 0 2.819-1.025 3.076-2.773h1.704M13.604 56.426c0 .996-.015 1.252-.09 2.172l.06.031c.618-.891 1.462-1.328 2.548-1.328 1.161 0 2.097.543 2.564 1.463.271.558.346 1.115.346 2.638v4.389H17.6v-4.734c0-1.086-.09-1.539-.362-1.901-.316-.422-.859-.664-1.477-.664-.754 0-1.403.332-1.78.92-.271.438-.377.965-.377 2.022v4.357h-1.432V54.346h1.432v2.08M22.305 63.514c0 .814.633 1.326 1.674 1.326 1.538 0 2.352-.889 2.336-2.547 0-.242 0-.303.046-.559-3.016.211-4.056.665-4.056 1.78zm4.282 2.277a12.825 12.825 0 0 1-.106-1.115l-.06-.016c-.708.934-1.508 1.326-2.669 1.326-1.794 0-3-1.025-3-2.533 0-1.115.618-1.869 1.839-2.246.392-.121 1.025-.256 1.764-.361.453-.061.996-.121 1.93-.213 0-1.071-.075-1.371-.361-1.688-.287-.332-.815-.513-1.448-.513-1.221 0-1.825.527-1.915 1.674h-1.493c.136-1.026.362-1.524.89-2.006.588-.543 1.508-.844 2.518-.844 1.237 0 2.232.437 2.775 1.207.392.572.482 1.115.482 2.984v1.207c0 1.508.061 2.278.256 3.137h-1.402zM31.307 57.498v.617c0 .287-.016.409-.091.725l.06.014c.77-1.131 1.463-1.553 2.594-1.553.286 0 .452.015.784.105v1.297c-.332-.166-.528-.211-.875-.211-.889 0-1.718.498-2.095 1.268-.197.39-.302 1.131-.302 2.096v3.935h-1.433v-8.293h1.358M38.545 57.15c0 .182 0 .227-.046.393.166-.045.212-.045.393-.045h1.522v1.145h-1.522c-.181 0-.227 0-.393-.045.046.166.046.211.046.392v4.086c0 .936.03 1.115.166 1.313.165.211.497.332.89.332.3 0 .572-.045.813-.137v1.252c-.663.121-.92.15-1.251.15-.769 0-1.448-.345-1.765-.92-.21-.361-.271-.709-.286-1.521V58.99c0-.181 0-.226.045-.392-.166.045-.211.045-.391.045h-1.162v-1.145h1.162c.18 0 .225 0 .391.045-.045-.166-.045-.211-.045-.393v-1.658h1.433v1.658M47.03 60.904c.257 0 .318 0 .543.061-.09-.768-.18-1.1-.391-1.463-.408-.662-1.177-1.07-2.006-1.07-1.417 0-2.262.89-2.443 2.533.211-.061.272-.061.528-.061h3.769zm-3.95 1.147c-.181 0-.226 0-.377-.061.03.741.12 1.102.347 1.539.422.77 1.342 1.297 2.292 1.297 1.116 0 1.854-.543 2.172-1.584h1.538c-.377 1.78-1.735 2.789-3.74 2.789-2.518 0-4.102-1.703-4.102-4.402 0-2.623 1.584-4.373 3.951-4.373 2.518 0 3.891 1.703 3.891 4.795H43.08zM52.098 57.498v.617c0 .287-.016.409-.091.725l.06.014c.77-1.131 1.463-1.553 2.594-1.553.286 0 .452.015.784.105v1.297c-.332-.166-.528-.211-.875-.211-.889 0-1.718.498-2.095 1.268-.197.39-.302 1.131-.302 2.096v3.935H50.74v-8.293h1.358M61.62 60.904c.257 0 .317 0 .543.061-.09-.768-.181-1.1-.392-1.463-.407-.662-1.176-1.07-2.005-1.07-1.417 0-2.262.89-2.443 2.533.211-.061.272-.061.528-.061h3.769zm-3.95 1.147c-.181 0-.227 0-.377-.061.03.741.12 1.102.347 1.539.422.77 1.341 1.297 2.292 1.297 1.116 0 1.854-.543 2.172-1.584h1.538c-.377 1.78-1.735 2.789-3.741 2.789-2.517 0-4.101-1.703-4.101-4.402 0-2.623 1.584-4.373 3.951-4.373 2.518 0 3.891 1.703 3.891 4.795H57.67zM66.4 61.689c0 1.885.844 3.106 2.157 3.106 1.356 0 2.367-1.357 2.367-3.15 0-1.871-.965-3.182-2.322-3.182-1.358 0-2.202 1.236-2.202 3.226zm4.615 4.102v-.693c0-.303.014-.438.09-.786l-.061-.013c-.784 1.221-1.538 1.687-2.684 1.687-2.081 0-3.498-1.734-3.498-4.297 0-2.578 1.448-4.388 3.513-4.388 1.161 0 1.991.514 2.594 1.584l.075-.016a19.432 19.432 0 0 1-.106-2.322v-2.201h1.433v11.445h-1.356zM81.75 59.668c0 .182 0 .227-.045.393.166-.045.211-.045.391-.045h2.006c.769 0 1.175-.061 1.539-.242.693-.346 1.144-1.116 1.144-1.959 0-.725-.346-1.434-.859-1.795-.406-.272-.965-.393-1.809-.393h-2.021c-.18 0-.225 0-.391-.045.045.166.045.211.045.393v3.693zm-1.539-5.322h3.74c1.569 0 2.322.166 3.061.664.859.556 1.328 1.568 1.328 2.805 0 1.326-.559 2.396-1.539 2.97-.649.377-1.432.512-2.879.512h-1.826c-.18 0-.225 0-.391-.045.045.166.045.211.045.393v4.146h-1.539V54.346zM91.34 57.498v.617c0 .287-.016.409-.09.725l.061.014c.769-1.131 1.462-1.553 2.593-1.553.285 0 .451.015.784.105v1.297c-.333-.166-.528-.211-.875-.211-.889 0-1.719.498-2.096 1.268-.196.39-.301 1.131-.301 2.096v3.935h-1.434v-8.293h1.358M96.641 63.514c0 .814.632 1.326 1.673 1.326 1.54 0 2.354-.889 2.338-2.547 0-.242 0-.303.045-.559-3.015.211-4.056.665-4.056 1.78zm4.283 2.277a12.446 12.446 0 0 1-.106-1.115l-.06-.016c-.709.934-1.508 1.326-2.67 1.326-1.793 0-3-1.025-3-2.533 0-1.115.619-1.869 1.84-2.246.392-.121 1.025-.256 1.763-.361a55.85 55.85 0 0 1 1.93-.213c0-1.071-.074-1.371-.361-1.688-.287-.332-.815-.513-1.447-.513-1.221 0-1.825.527-1.917 1.674h-1.492c.137-1.026.362-1.524.891-2.006.588-.543 1.508-.844 2.518-.844 1.236 0 2.232.437 2.775 1.207.391.572.482 1.115.482 2.984v1.207c0 1.508.061 2.278.256 3.137h-1.402zM111.223 62.941c-.243 1.93-1.569 3.09-3.545 3.09-2.307 0-3.844-1.763-3.844-4.431 0-2.594 1.582-4.344 3.951-4.344 1.93 0 3.227 1.115 3.438 2.986h-1.463c-.137-1.101-.905-1.81-1.99-1.81-1.495 0-2.399 1.191-2.399 3.168 0 1.974.936 3.226 2.399 3.226 1.054 0 1.808-.709 1.99-1.885h1.463M114.721 57.15c0 .182 0 .227-.045.393.166-.045.211-.045.392-.045h1.522v1.145h-1.522c-.181 0-.226 0-.392-.045.045.166.045.211.045.392v4.086c0 .936.031 1.115.166 1.313.166.211.498.332.89.332.301 0 .573-.045.813-.137v1.252c-.662.121-.92.15-1.25.15-.77 0-1.449-.345-1.766-.92-.211-.361-.271-.709-.285-1.521V58.99c0-.181 0-.226.045-.392-.166.045-.211.045-.393.045h-1.16v-1.145h1.16c.182 0 .227 0 .393.045-.045-.166-.045-.211-.045-.393v-1.658h1.432v1.658M118.084 57.498h1.432v8.293h-1.432v-8.293zm0-3.152h1.432v1.674h-1.432v-1.674zM128.744 62.941c-.24 1.93-1.568 3.09-3.543 3.09-2.306 0-3.846-1.763-3.846-4.431 0-2.594 1.584-4.344 3.952-4.344 1.929 0 3.226 1.115 3.437 2.986h-1.463c-.135-1.101-.904-1.81-1.99-1.81-1.492 0-2.396 1.191-2.396 3.168 0 1.974.933 3.226 2.396 3.226 1.057 0 1.811-.709 1.99-1.885h1.463M135.619 60.904c.258 0 .319 0 .543.061-.09-.768-.18-1.1-.391-1.463-.408-.662-1.177-1.07-2.005-1.07-1.418 0-2.262.89-2.444 2.533.211-.061.272-.061.528-.061h3.769zm-3.949 1.147c-.182 0-.227 0-.377-.061.029.741.119 1.102.346 1.539.422.77 1.341 1.297 2.293 1.297 1.115 0 1.853-.543 2.172-1.584h1.537c-.377 1.78-1.735 2.789-3.741 2.789-2.517 0-4.101-1.703-4.101-4.402 0-2.623 1.584-4.373 3.951-4.373 2.518 0 3.891 1.703 3.891 4.795h-5.971z" fill="#001F3F"/><path d="M.803 47.541h137.011" stroke="#001F3F" stroke-width=".6"/><path d="M.7 4.432c.987 0 2.647.588 2.647 3.078v21.478c0 2.453-1.582 3.082-3.041 3.121v.314h9.043v-.314c-1.227-.039-3.078-.475-3.078-3.121V18.166c1.894 0 4.537.114 7.496 5.014l3.396 6.048c.041.039.672 1.022 1.027 1.535.592.871.907 1.223 1.223 1.66h5.172v-.314c-.867-.08-2.244-.123-4.854-4.541l-2.568-4.783c-1.223-2.054-2.603-3.874-4.697-4.899v-.079c4.146-.75 5.961-3.611 5.961-6.57 0-2.765-1.617-7.204-8.293-7.204H.306v.399H.7zm5.571 12.98V4.941c.39-.079.865-.154 1.771-.154 5.689 0 7.109 3.882 7.109 6.684 0 3.795-1.98 5.941-7.267 5.941H6.271zM37.616 4.354c-1.459 0-3.041.666-3.041 3.077v21.557c0 2.453 1.779 3.121 3.041 3.121v.314h-9.004v-.314c1.381 0 3.043-.668 3.043-3.121V7.431c0-2.644-1.818-3.077-3.043-3.077v-.321h9.004v.321M52.728 18.269c4.812 0 7.898 2.346 7.898 6.651 0 .986-.242 2.603-1.148 4.029-.913 1.424-2.608 2.607-5.571 2.607-4.099 0-4.099-1.933-4.099-3.396v-9.891h2.92zm1.734 14.154c.478 0 3.713-.039 5.685-1.142 1.54-.869 3.752-2.924 3.752-6.243 0-2.095-.871-3.858-2.332-5.203-1.734-1.618-4.007-1.993-6.351-2.198v-.079c3.472-.912 6.115-3.078 6.115-6.707 0-3.59-3.238-6.818-8.213-6.818h-9.279v.321h.353c1.62 0 2.688 1.143 2.688 3.195v21.439c0 2.252-1.377 3.121-2.647 3.121h-.394v.314h10.623zM49.808 17.4V5.34c.507-.162 1.338-.435 2.521-.435 3.358 0 5.725 3.023 5.725 6.498 0 3.673-2.569 5.243-3.157 5.524-.552.276-1.341.473-3.24.473h-1.849zM76.056 17.274l3.273-10.013h.084l3.551 10.013h-6.908zm.328-13.023c.986 0 1.9.358 2.363 1.242l-7.525 22.598c-.828 2.491-1.815 3.832-3.791 3.987v.318h7v-.318c-1.184 0-2.289-.239-2.289-1.969 0-.592.263-1.697.464-2.293l3.098-9.469h7.647l3.55 10.022a.78.78 0 0 0 .078.236c.278.871.352 1.504.352 1.74 0 1.854-1.736 1.733-2.959 1.733v.318h9.279v-.318c-1.38-.116-2.445-.194-3.83-4.104L81.335 3.986h-4.947l-.004.265zM132.612 7.395c0-.158.182-.288.338-.359a.385.385 0 0 0 .205-.319c.135.169.246.433.246.887 0 .426-.177.58-.371.608-.177.023-.418-.083-.418-.32 0 .237-.242.343-.424.32-.189-.028-.361-.182-.361-.608 0-.454.106-.718.24-.887.012.137.086.26.205.319.155.071.34.201.34.359zm-20.982.181c-.117-.122-.279-.398-.279-.828 0-.458.113-.34.113-.34.107.06.289.131.474.091 0 0-.347.288-.308 1.077zm2.092-1.077c.181.04.367-.031.472-.091 0 0 .116-.118.116.34 0 .43-.166.706-.282.828.041-.789-.306-1.077-.306-1.077zm17.685 1.077c-.113-.122-.279-.398-.279-.828 0-.458.119-.34.119-.34.102.06.283.131.469.091 0 0-.348.288-.309 1.077zm2.088-1.077a.698.698 0 0 0 .473-.091s.119-.118.119.34c0 .43-.166.706-.279.828.039-.789-.313-1.077-.313-1.077zm-1.293.024c-.033 0-.064-.032-.064-.063v-.454c0-.035-.032-.066-.063-.066h-.762c-.027 0-.035-.041-.023-.06a1.389 1.389 0 0 1 1.314-.899c.592 0 1.108.371 1.301.899.012.019 0 .06-.027.06h-.758c-.035 0-.062.031-.062.066v.454c0 .031-.032.063-.063.063h-.793zm1.01 2.047a.17.17 0 0 1 .129.048l.027.028c.029.031.049.09.045.133l-.08.663c-.004.044-.043.087-.086.091l-.289.031a.163.163 0 0 0-.109.087l-.194.265c-.031.027-.084.027-.119-.004l-.189-.264a.177.177 0 0 0-.114-.084l-.285-.031c-.043-.004-.082-.047-.086-.091l-.076-.663a.194.194 0 0 1 .045-.133l.02-.028a.188.188 0 0 1 .132-.052c.471.064.786.052 1.229.004zm-20.375-1.175c0-.158.182-.288.34-.359a.383.383 0 0 0 .201-.319c.139.169.248.433.248.887 0 .426-.178.58-.361.608-.186.023-.428-.083-.428-.32 0 .237-.236.343-.422.32-.189-.028-.367-.182-.367-.608 0-.454.111-.718.246-.887.012.137.086.26.205.319.152.071.338.201.338.359zm.012-.872h-.395c-.035 0-.062-.032-.062-.063v-.454c0-.035-.028-.066-.063-.066h-.762c-.027 0-.035-.041-.027-.06a1.395 1.395 0 0 1 1.309-.899 1.39 1.39 0 0 1 1.31.899c.008.019.004.06-.027.06h-.758c-.031 0-.062.031-.062.066v.454a.066.066 0 0 1-.065.063h-.398zm.617 2.043a.2.2 0 0 1 .133.052l.019.028c.028.031.053.09.049.133l-.084.663a.096.096 0 0 1-.086.091l-.281.031a.173.173 0 0 0-.113.084l-.194.264a.087.087 0 0 1-.115.004l-.193-.265a.185.185 0 0 0-.114-.087l-.289-.031c-.039-.004-.082-.047-.082-.091l-.08-.663c-.004-.043.012-.102.049-.133l.019-.028a.184.184 0 0 1 .133-.048c.448.048.758.06 1.229-.004zm-1.852 22.77v-.004c.004 0 .016 0 0 .004zm22.221-.004c-.004 0-.004.004-.004.004-.008-.004-.004-.004.004-.004zm-1.941-12.8c-.116.115-.116.234-.116.419v1.471c-.228-.264-.89-.426-1.42-.465-.666-.048-1.361.114-1.712.371a.92.92 0 0 0-.315.43c-.367.141-.457.603-.465.856-.021.49.055 1.211.121 1.467.076.253.043.466-.359.561-.383.087-.736.138-1.143.067-.177-.027-.513-.245-.742-.446-.043-.111-.123-.237-.17-.32a.571.571 0 0 0-.099-.232c.261-.348.238-.762-.024-.955a.51.51 0 0 0-.256-.083c-.275-.418-.603-.569-.765-.569-.035 0-.067.008-.098.013v-6.088a.094.094 0 0 0 .031.004c.516.012.828-.607.828-.607.209-.406.438-.541.584-.592.163-.056.372-.071.913.047.453.098.875.139 1.218.118.166-.008.311-.023.449-.043.348.067 1.073.244 1.622.631.13.114.32.308.32.454 0 .166.035.588.078.733.053.155.178.257.225.304 0 0-.129.466.41.738 0 0 .037.509.605.616 0 0-.162.303.373.466 0 0 .012.205.073.264 0 .161-.047.256-.166.37zm-10.881 2.572c-.155 0-.483.151-.758.569a.481.481 0 0 0-.256.083c-.262.193-.285.607-.023.955a.574.574 0 0 0-.1.232c-.047.083-.131.209-.17.32-.228.201-.564.419-.742.446-.406.071-.76.02-1.143-.067-.398-.095-.435-.308-.363-.561.066-.256.146-.977.125-1.467-.012-.253-.094-.715-.461-.856a.918.918 0 0 0-.32-.43c-.35-.257-1.049-.419-1.715-.371-.525.039-1.191.201-1.416.465v-1.471c0-.185 0-.304-.119-.419a.461.461 0 0 1-.162-.37c.058-.059.072-.264.072-.264.531-.163.373-.466.373-.466.568-.107.607-.616.607-.616.534-.272.409-.738.409-.738.046-.047.175-.149.22-.304.043-.145.082-.567.082-.733 0-.146.19-.34.317-.454.551-.387 1.277-.564 1.625-.631.138.02.283.035.445.043.348.021.77-.02 1.227-.118.537-.118.75-.103.904-.047.15.051.379.186.588.592 0 0 .308.619.824.607.012 0 .023 0 .031-.004v6.088c-.031-.005-.062-.013-.101-.013zm21.892-12.147c-1.218 0-1.697 1.141-1.879 1.57-.603 1.437-.623 4.088-.642 6.649l-.004.426-.012.899c-.015 1.141-.316 2.008-.892 2.565-.58.56-1.231.623-1.483.623-1.234 0-2.115-1.121-2.422-2.056v-.536c0-.418-.316-.54-.42-.592v-7.769h-.496v-.461h.51v-.343h-.51v-.414h.51v-.344h-.51v-.438h.51v-.342h-.51v-.435h.51v-.347h-.51V7.17h.51v-.343h-.51c-.008-.138-.015-.272-.035-.406l.531-.056-.047-.339-.535.099a2.274 2.274 0 0 0-.099-.363l.484-.245-.164-.304-.439.261a1.945 1.945 0 0 0-.198-.331l.332-.332-.248-.237-.293.335a1.614 1.614 0 0 0-.371-.26l.178-.378-.318-.135-.147.398a2.216 2.216 0 0 0-.469-.091l.016-.414h-.344l.012.407c-.17.007-.328.032-.473.071l-.138-.371-.321.135.159.342a1.86 1.86 0 0 0-.383.257l-.268-.315-.248.236.299.3a1.916 1.916 0 0 0-.232.348l-.391-.238-.166.304.43.213c-.051.127-.086.253-.125.386l-.467-.078-.047.339.453.043c-.02.139-.035.277-.039.419h-.445v.343h.433v.442h-.433v.347h.433v.435h-.433v.342h.433v.434l-.433.004v.344h.433v.414h-.433v.343h.433v.465h-.437l-.004.383s-.576.371-.904.888a1.373 1.373 0 0 0-.604.036c-.488.142-1.207.283-1.721.283-.515 0-.816-.102-.968-.335-.096-.149-.143-.387-.282-.603-.093-.151-.271-.288-.504-.371 0 0-.162-.612-.746-.627h-.031V5.722a.566.566 0 0 0 .395-.935h.759l1.012-3.365s-.49-.158-1.031-.261l-.24 1.038s-.295-.051-.569-.114l-.193 1.085s-.445.043-.75 0l.15-1.109s-.322.015-.445.007l.139-1.396s-.495-.043-.821-.043c-.328 0-.822.043-.822.043l.139 1.396a6.266 6.266 0 0 1-.442-.007l.151 1.109c-.309.043-.758 0-.758 0l-.19-1.085c-.269.063-.568.114-.568.114l-.24-1.038c-.545.103-1.031.261-1.031.261l1.011 3.365h.721a.548.548 0 0 0-.141.367c0 .308.248.56.547.572v4.668h-.031c-.58.015-.742.627-.742.627-.233.083-.414.22-.508.371-.135.216-.182.454-.281.603-.149.233-.453.335-.967.335-.512 0-1.231-.141-1.719-.283a1.37 1.37 0 0 0-.603-.036c-.328-.517-.862-.888-.862-.888l-.007-.394h-.477v-.454h.461v-.343h-.461v-.414h.461v-.344h-.461v-.438h.461v-.342h-.461v-.435h.461v-.347h-.461V7.17h.461v-.343h-.469a4.65 4.65 0 0 0-.043-.411l.5-.051-.047-.339-.513.09a3.334 3.334 0 0 0-.114-.358l.477-.241-.162-.304-.434.261a2.524 2.524 0 0 0-.213-.331l.34-.332-.258-.237-.287.339a1.856 1.856 0 0 0-.367-.264l.174-.378-.316-.135-.145.394a2.074 2.074 0 0 0-.475-.087l.02-.414h-.342l.016.411a2.231 2.231 0 0 0-.479.067l-.14-.371-.317.135.162.342a1.805 1.805 0 0 0-.39.249l-.264-.307-.25.236.297.296a2.028 2.028 0 0 0-.229.352l-.382-.238-.174.304.437.217a3.841 3.841 0 0 0-.111.386l-.488-.082-.047.339.484.047c-.019.139-.027.277-.035.415h-.481v.343h.477v.442h-.477v.347h.477v.435h-.477v.342h.477v.434l-.477.004v.344h.477v.41l-.477.004v.343h.477v.454h-.498v7.776c-.102.052-.414.174-.414.592v.536c-.311.935-1.188 2.056-2.418 2.056-.256 0-.912-.063-1.486-.623-.58-.557-.885-1.424-.893-2.565l-.016-.899v-.426c-.019-2.561-.039-5.212-.646-6.649-.178-.429-.66-1.57-1.879-1.57-.537 0-.959.387-.959.876 0 .481.391.872.873.872a.792.792 0 0 0 .299-.056h.012s.039-.015.035-.015c.367-.134.625-.027.814.348.563 1.135.584 3.708.6 5.779l.004.848.011.939c.036 3.177 2.047 4.024 3.231 4.024.588 0 1.074-.087 1.508-.311.236-.095.894-.248 1.029-.225 0 .95-.178 2.904.039 3.889.051.254.104.44.174.577-.441.003-.82.084-1.068.197-.262.115-.387.08-.522-.004-.139-.086-.348-.174-.549-.117-.697.174-.39 1.142-.306 1.537.086.39.062.951.035 1.875a7.26 7.26 0 0 0 .113 1.633c.147.675.774.824 1.184.781a.834.834 0 0 0 .603-.326c.215.086.324.248.34.326.027.142.068.146.123.092.063-.076.082-.143.086-.27 0-.07-.012-.17-.047-.26.108-.058.09-.011.166-.107.035-.047.147-.008.233.061.082.05.275.201.371.46.062.155.224.012.279-.154.031-.098.031-.264.016-.422.119.035.359.155.451.53.027.127-.02.228.121.121.142-.102.232-.418.209-.612a.584.584 0 0 0-.434-.507c-.004 0 0-.004 0-.004-.232-.487-.588-.588-.793-.643a1.172 1.172 0 0 0-.533.027c-.326-.011-.851-.091-.902-.439a5.37 5.37 0 0 1-.051-1.006c.016-.303.295-.646.418-.769.121-.118.197-.176.496-.145.297.035 1.156.342 1.752.283.465-.043 1.014-.375.885-1.512.326-.666.527-1.651.527-2.299 0-.659-.023-1.222-.078-1.68.166.15.469.185 1.08.185.328 0 .727-.11.979-.253.261-.141.332-.023.351.186.067.793-.058 1.661-.058 1.661-.012.178.023.379.15.458.125.079.283.062.434.008.166-.072.425-.028.619-.04.336-.02.584-.082 1.117-.111.484-.023 1.652.052 2.213.052.472 0 .754-.315.894-.58v4.206a.574.574 0 0 0-.547.567c0 .201.102.375.26.482h-.808v2.473h5.373V29.97h-.786a.582.582 0 0 0 .256-.482.565.565 0 0 0-.531-.563v-4.214c.145.269.426.584.898.584.557 0 1.725-.075 2.213-.052.53.029.782.091 1.118.111.189.012.453-.032.619.04.15.054.304.071.433-.008.127-.079.162-.28.147-.458 0 0-.121-.868-.059-1.661.024-.209.094-.327.352-.186.26.143.658.253.982.253.608 0 .91-.035 1.08-.185a14.799 14.799 0 0 0-.078 1.68c0 .648.201 1.633.531 2.299-.136 1.137.418 1.469.877 1.512.596.059 1.459-.248 1.756-.283.299-.031.375.027.496.145.123.123.399.466.422.769.008.178 0 .652-.055 1.006-.054.348-.58.428-.908.439a1.175 1.175 0 0 0-.535-.027c-.197.055-.557.156-.785.643 0 0 0 .004-.004.004a.582.582 0 0 0-.43.507c-.025.194.067.51.209.612.137.107.09.006.121-.121.092-.375.332-.495.452-.53a1.04 1.04 0 0 0 .015.422c.055.166.221.309.28.154a.963.963 0 0 1 .371-.46c.082-.069.193-.108.232-.061.07.096.055.049.162.107a.99.99 0 0 0-.043.26c0 .127.024.194.086.27.051.054.096.05.127-.092.012-.078.121-.24.334-.326a.844.844 0 0 0 .602.326c.418.043 1.045-.106 1.183-.781.063-.307.137-.828.114-1.633-.024-.924-.051-1.485.035-1.875.084-.395.394-1.363-.303-1.537-.205-.057-.414.031-.549.117-.135.084-.264.119-.521.004-.252-.113-.627-.194-1.073-.197.075-.137.127-.323.182-.577.217-.985.039-2.939.039-3.889.131-.023.785.13 1.025.225.43.224.916.311 1.512.311 1.176 0 3.188-.847 3.227-4.024l.008-.939.007-.848c.016-2.071.036-4.644.6-5.779.193-.375.443-.482.812-.348-.007 0 .034.015.034.015h.011a.873.873 0 0 0 1.176-.816c0-.489-.422-.876-.963-.876z" fill="#001F3F"/></g></svg>