<svg width="200" height="200" viewBox="0 0 200 200" xmlns="http://www.w3.org/2000/svg"><title>CKD</title><path d="M82.553 134.8c9.916 24.358 27.236 42.97 50.646 52.802 15.009-6.95 29.45-17.672 39.459-32.612 10.531-15.722 18.587-36.46 17.089-60.567-1.46-23.495-10.353-40.944-21.439-54.976L82.553 134.8zM50.861 20.19c-10.48 7.445-19.333 16.642-26.41 27.642-10.33 16.06-17.731 40.873-14.292 65.537 2.106 15.106 7.65 28.42 14.913 39.447 10.805 16.4 24.462 28.641 44.488 36.809V10.257S56.307 16.32 50.86 20.19zM70.747 9.802V190.1s1.63.761 3.207 1.311V8.531c-1.197.262-2.157.717-3.207 1.272zM31.597 165.86c-12.811-14.447-23.308-34.41-24.856-59.325-1.872-30.116 8.977-51.914 22.06-69.264 10.96-14.534 28.34-26.564 47.538-32.613 1.224-.385 9.583-2.445 6.525-1.863-29.98 5.886-52.056 21.558-66.18 43.794C7.214 61.5-.478 81.36 1.148 105.604c1.748 26.06 12.39 46.53 26.1 61.5 14.11 15.406 33.096 26.452 57.17 30.127-22.741-5.146-39.312-16.137-52.82-31.37zM108.687.603c10.02 0 14.456 2.085 17.988 3.124 13.935 4.066 25.354 10.154 35.73 18.637 1.228 1.003 5.747 4.964 5.904 4.97.908.029 5.705-5.908 6.525-6.834 6.262-7.07 12.235-14.664 19.264-20.5C155.48 44.43 76.339 131.384 76.339 131.384v10.25s3.571 7.129 5.593 10.25c14.43 22.274 35.831 39.642 65.87 45.037-30.067-8.2-50.585-25.796-64.316-51.56l-5.49-9.945.028-1.403s73.066-81.902 106.13-117.862C189.252 10.607 193.83 4.58 199.69 0c1.358 4.748-3.669 8.192-7.146 12.113a2621.214 2621.214 0 0 1-21.75 24.227c12.922 17.533 24.059 38.497 22.372 68.954-1.192 21.502-8.757 37.675-18.332 51.87-9.57 14.188-22.565 25.526-37.624 32.66l1.87.947c15.251-6.248 28.73-16.98 39.482-31.122 12.658-16.65 21.824-37.396 20.196-66.78-1.415-25.54-12.63-42.634-24.235-58.703 7.017 6.154 12.23 15.211 16.778 24.848 4.39 9.302 7.654 21.09 8.39 32.924 1.22 19.633-2.598 37.84-9.633 51.87-10.902 21.743-28.393 37.726-49.713 47.832 4.119 2.285 15.846 5.902 15.846 5.902 14.203 2.87 32.345.432 43.81-2.174-5.149 2.884-12.06 3.356-18.642 4.038-22.373 2.318-43.513-2.429-57.792-9.318-10.434-5.035-19.24-10.533-27.031-18.015a98.318 98.318 0 0 1-19.236-25.754l-.031 46.151c2.494 1.283 7.187 2.962 19.325 6.205 10.99.634 18.683-.695 26.973-2.375-5.045 2.781-15.386 4.229-29.517 3.416-28.095-1.883-48.645-13.22-64.626-29.196C13.65 154.754 2.063 133.763.216 106.226c-1.244-18.55 3.032-35.842 9.01-48.454 8.922-18.82 22.034-32.14 39.15-43.173C61.342 6.239 77.921.56 97.155.62c0 0-2.831.41-11.496 4.66-3.325.61-8.392 2.204-8.392 2.204l.003 120.482s57.064-63.26 85.755-94.422C151.978 21.812 137.9 13.107 120.77 7.455c-1.09-1.176-4.545-3.804-6.609-4.824 17.247 3.274 34.91 12.945 46.69 23.77.626.575 5.264 6.289 6.525 2.485.596-1.8-9.09-9.084-10.875-10.25-13.084-8.553-29.656-15.609-47.815-18.033z" fill="#001F3F" fill-rule="evenodd"/></svg>