<?xml version="1.0" encoding="UTF-8" standalone="no"?>
<svg width="144px" height="67px" viewBox="0 0 144 67" version="1.1" xmlns="http://www.w3.org/2000/svg" xmlns:xlink="http://www.w3.org/1999/xlink" xmlns:sketch="http://www.bohemiancoding.com/sketch/ns">
    <!-- Generator: Sketch 3.3.2 (12043) - http://www.bohemiancoding.com/sketch -->
    <title>Slice 1</title>
    <desc>Created with Sketch.</desc>
    <defs></defs>
    <g id="Page-1" stroke="none" stroke-width="1" fill="none" fill-rule="evenodd" sketch:type="MSPage">
        <g id="CharteredPracticeblacktypelogo" sketch:type="MSLayerGroup">
            <path d="M10.543,61.961 C10.241,64.51 8.416,66.078 5.763,66.078 C2.581,66.078 0.53,63.709 0.53,60.031 C0.53,56.426 2.626,54.059 5.808,54.059 C8.401,54.059 10.316,55.703 10.543,58.131 L8.839,58.131 C8.582,56.367 7.481,55.371 5.793,55.371 C3.637,55.371 2.188,57.24 2.188,60 C2.188,62.881 3.591,64.734 5.763,64.734 C7.437,64.734 8.582,63.709 8.839,61.961 L10.543,61.961" id="Fill-1" fill="#E5EAF0" sketch:type="MSShapeGroup"></path>
            <path d="M13.604,56.426 C13.604,57.422 13.589,57.678 13.514,58.598 L13.574,58.629 C14.192,57.738 15.036,57.301 16.122,57.301 C17.283,57.301 18.219,57.844 18.686,58.764 C18.957,59.322 19.032,59.879 19.032,61.402 L19.032,65.791 L17.6,65.791 L17.6,61.057 C17.6,59.971 17.51,59.518 17.238,59.156 C16.922,58.734 16.379,58.492 15.761,58.492 C15.007,58.492 14.358,58.824 13.981,59.412 C13.71,59.85 13.604,60.377 13.604,61.434 L13.604,65.791 L12.172,65.791 L12.172,54.346 L13.604,54.346 L13.604,56.426" id="Fill-2" fill="#E5EAF0" sketch:type="MSShapeGroup"></path>
            <path d="M22.305,63.514 C22.305,64.328 22.938,64.84 23.979,64.84 C25.517,64.84 26.331,63.951 26.315,62.293 C26.315,62.051 26.315,61.99 26.361,61.734 C23.345,61.945 22.305,62.399 22.305,63.514 L22.305,63.514 Z M26.587,65.791 C26.526,65.324 26.512,65.172 26.481,64.676 L26.421,64.66 C25.713,65.594 24.913,65.986 23.752,65.986 C21.958,65.986 20.752,64.961 20.752,63.453 C20.752,62.338 21.37,61.584 22.591,61.207 C22.983,61.086 23.616,60.951 24.355,60.846 C24.808,60.785 25.351,60.725 26.285,60.633 C26.285,59.562 26.21,59.262 25.924,58.945 C25.637,58.613 25.109,58.432 24.476,58.432 C23.255,58.432 22.651,58.959 22.561,60.106 L21.068,60.106 C21.204,59.08 21.43,58.582 21.958,58.1 C22.546,57.557 23.466,57.256 24.476,57.256 C25.713,57.256 26.708,57.693 27.251,58.463 C27.643,59.035 27.733,59.578 27.733,61.447 L27.733,62.654 C27.733,64.162 27.794,64.932 27.989,65.791 L26.587,65.791 L26.587,65.791 Z" id="Fill-3" fill="#E5EAF0" sketch:type="MSShapeGroup"></path>
            <path d="M31.307,57.498 L31.307,58.115 C31.307,58.402 31.291,58.524 31.216,58.84 L31.276,58.854 C32.046,57.723 32.739,57.301 33.87,57.301 C34.156,57.301 34.322,57.316 34.654,57.406 L34.654,58.703 C34.322,58.537 34.126,58.492 33.779,58.492 C32.89,58.492 32.061,58.99 31.684,59.76 C31.487,60.15 31.382,60.891 31.382,61.856 L31.382,65.791 L29.949,65.791 L29.949,57.498 L31.307,57.498" id="Fill-4" fill="#E5EAF0" sketch:type="MSShapeGroup"></path>
            <path d="M38.545,57.15 C38.545,57.332 38.545,57.377 38.499,57.543 C38.665,57.498 38.711,57.498 38.892,57.498 L40.414,57.498 L40.414,58.643 L38.892,58.643 C38.711,58.643 38.665,58.643 38.499,58.598 C38.545,58.764 38.545,58.809 38.545,58.99 L38.545,63.076 C38.545,64.012 38.575,64.191 38.711,64.389 C38.876,64.6 39.208,64.721 39.601,64.721 C39.901,64.721 40.173,64.676 40.414,64.584 L40.414,65.836 C39.751,65.957 39.494,65.986 39.163,65.986 C38.394,65.986 37.715,65.641 37.398,65.066 C37.188,64.705 37.127,64.357 37.112,63.545 L37.112,58.99 C37.112,58.809 37.112,58.764 37.157,58.598 C36.991,58.643 36.946,58.643 36.766,58.643 L35.604,58.643 L35.604,57.498 L36.766,57.498 C36.946,57.498 36.991,57.498 37.157,57.543 C37.112,57.377 37.112,57.332 37.112,57.15 L37.112,55.492 L38.545,55.492 L38.545,57.15" id="Fill-5" fill="#E5EAF0" sketch:type="MSShapeGroup"></path>
            <path d="M47.03,60.904 C47.287,60.904 47.348,60.904 47.573,60.965 C47.483,60.197 47.393,59.865 47.182,59.502 C46.774,58.84 46.005,58.432 45.176,58.432 C43.759,58.432 42.914,59.322 42.733,60.965 C42.944,60.904 43.005,60.904 43.261,60.904 L47.03,60.904 L47.03,60.904 Z M43.08,62.051 C42.899,62.051 42.854,62.051 42.703,61.99 C42.733,62.731 42.823,63.092 43.05,63.529 C43.472,64.299 44.392,64.826 45.342,64.826 C46.458,64.826 47.196,64.283 47.514,63.242 L49.052,63.242 C48.675,65.022 47.317,66.031 45.312,66.031 C42.794,66.031 41.21,64.328 41.21,61.629 C41.21,59.006 42.794,57.256 45.161,57.256 C47.679,57.256 49.052,58.959 49.052,62.051 L43.08,62.051 L43.08,62.051 Z" id="Fill-6" fill="#E5EAF0" sketch:type="MSShapeGroup"></path>
            <path d="M52.098,57.498 L52.098,58.115 C52.098,58.402 52.082,58.524 52.007,58.84 L52.067,58.854 C52.837,57.723 53.53,57.301 54.661,57.301 C54.947,57.301 55.113,57.316 55.445,57.406 L55.445,58.703 C55.113,58.537 54.917,58.492 54.57,58.492 C53.681,58.492 52.852,58.99 52.475,59.76 C52.278,60.15 52.173,60.891 52.173,61.856 L52.173,65.791 L50.74,65.791 L50.74,57.498 L52.098,57.498" id="Fill-7" fill="#E5EAF0" sketch:type="MSShapeGroup"></path>
            <path d="M61.62,60.904 C61.877,60.904 61.937,60.904 62.163,60.965 C62.073,60.197 61.982,59.865 61.771,59.502 C61.364,58.84 60.595,58.432 59.766,58.432 C58.349,58.432 57.504,59.322 57.323,60.965 C57.534,60.904 57.595,60.904 57.851,60.904 L61.62,60.904 L61.62,60.904 Z M57.67,62.051 C57.489,62.051 57.443,62.051 57.293,61.99 C57.323,62.731 57.413,63.092 57.64,63.529 C58.062,64.299 58.981,64.826 59.932,64.826 C61.048,64.826 61.786,64.283 62.104,63.242 L63.642,63.242 C63.265,65.022 61.907,66.031 59.901,66.031 C57.384,66.031 55.8,64.328 55.8,61.629 C55.8,59.006 57.384,57.256 59.751,57.256 C62.269,57.256 63.642,58.959 63.642,62.051 L57.67,62.051 L57.67,62.051 Z" id="Fill-8" fill="#E5EAF0" sketch:type="MSShapeGroup"></path>
            <path d="M66.4,61.689 C66.4,63.574 67.244,64.795 68.557,64.795 C69.913,64.795 70.924,63.438 70.924,61.645 C70.924,59.774 69.959,58.463 68.602,58.463 C67.244,58.463 66.4,59.699 66.4,61.689 L66.4,61.689 Z M71.015,65.791 L71.015,65.098 C71.015,64.795 71.029,64.66 71.105,64.312 L71.044,64.299 C70.26,65.52 69.506,65.986 68.36,65.986 C66.279,65.986 64.862,64.252 64.862,61.689 C64.862,59.111 66.31,57.301 68.375,57.301 C69.536,57.301 70.366,57.815 70.969,58.885 L71.044,58.869 C70.954,57.875 70.938,57.603 70.938,56.547 L70.938,54.346 L72.371,54.346 L72.371,65.791 L71.015,65.791 L71.015,65.791 Z" id="Fill-9" fill="#E5EAF0" sketch:type="MSShapeGroup"></path>
            <path d="M81.75,59.668 C81.75,59.85 81.75,59.895 81.705,60.061 C81.871,60.016 81.916,60.016 82.096,60.016 L84.102,60.016 C84.871,60.016 85.277,59.955 85.641,59.774 C86.334,59.428 86.785,58.658 86.785,57.815 C86.785,57.09 86.439,56.381 85.926,56.02 C85.52,55.748 84.961,55.627 84.117,55.627 L82.096,55.627 C81.916,55.627 81.871,55.627 81.705,55.582 C81.75,55.748 81.75,55.793 81.75,55.975 L81.75,59.668 L81.75,59.668 Z M80.211,54.346 L83.951,54.346 C85.52,54.346 86.273,54.512 87.012,55.01 C87.871,55.566 88.34,56.578 88.34,57.815 C88.34,59.141 87.781,60.211 86.801,60.785 C86.152,61.162 85.369,61.297 83.922,61.297 L82.096,61.297 C81.916,61.297 81.871,61.297 81.705,61.252 C81.75,61.418 81.75,61.463 81.75,61.645 L81.75,65.791 L80.211,65.791 L80.211,54.346 L80.211,54.346 Z" id="Fill-10" fill="#E5EAF0" sketch:type="MSShapeGroup"></path>
            <path d="M91.34,57.498 L91.34,58.115 C91.34,58.402 91.324,58.524 91.25,58.84 L91.311,58.854 C92.08,57.723 92.773,57.301 93.904,57.301 C94.189,57.301 94.355,57.316 94.688,57.406 L94.688,58.703 C94.355,58.537 94.16,58.492 93.813,58.492 C92.924,58.492 92.094,58.99 91.717,59.76 C91.521,60.15 91.416,60.891 91.416,61.856 L91.416,65.791 L89.982,65.791 L89.982,57.498 L91.34,57.498" id="Fill-11" fill="#E5EAF0" sketch:type="MSShapeGroup"></path>
            <path d="M96.641,63.514 C96.641,64.328 97.273,64.84 98.314,64.84 C99.854,64.84 100.668,63.951 100.652,62.293 C100.652,62.051 100.652,61.99 100.697,61.734 C97.682,61.945 96.641,62.399 96.641,63.514 L96.641,63.514 Z M100.924,65.791 C100.863,65.324 100.848,65.172 100.818,64.676 L100.758,64.66 C100.049,65.594 99.25,65.986 98.088,65.986 C96.295,65.986 95.088,64.961 95.088,63.453 C95.088,62.338 95.707,61.584 96.928,61.207 C97.32,61.086 97.953,60.951 98.691,60.846 C99.145,60.785 99.688,60.725 100.621,60.633 C100.621,59.562 100.547,59.262 100.26,58.945 C99.973,58.613 99.445,58.432 98.813,58.432 C97.592,58.432 96.988,58.959 96.896,60.106 L95.404,60.106 C95.541,59.08 95.766,58.582 96.295,58.1 C96.883,57.557 97.803,57.256 98.813,57.256 C100.049,57.256 101.045,57.693 101.588,58.463 C101.979,59.035 102.07,59.578 102.07,61.447 L102.07,62.654 C102.07,64.162 102.131,64.932 102.326,65.791 L100.924,65.791 L100.924,65.791 Z" id="Fill-12" fill="#E5EAF0" sketch:type="MSShapeGroup"></path>
            <path d="M111.223,62.941 C110.98,64.871 109.654,66.031 107.678,66.031 C105.371,66.031 103.834,64.268 103.834,61.6 C103.834,59.006 105.416,57.256 107.785,57.256 C109.715,57.256 111.012,58.371 111.223,60.242 L109.76,60.242 C109.623,59.141 108.855,58.432 107.77,58.432 C106.275,58.432 105.371,59.623 105.371,61.6 C105.371,63.574 106.307,64.826 107.77,64.826 C108.824,64.826 109.578,64.117 109.76,62.941 L111.223,62.941" id="Fill-13" fill="#E5EAF0" sketch:type="MSShapeGroup"></path>
            <path d="M114.721,57.15 C114.721,57.332 114.721,57.377 114.676,57.543 C114.842,57.498 114.887,57.498 115.068,57.498 L116.59,57.498 L116.59,58.643 L115.068,58.643 C114.887,58.643 114.842,58.643 114.676,58.598 C114.721,58.764 114.721,58.809 114.721,58.99 L114.721,63.076 C114.721,64.012 114.752,64.191 114.887,64.389 C115.053,64.6 115.385,64.721 115.777,64.721 C116.078,64.721 116.35,64.676 116.59,64.584 L116.59,65.836 C115.928,65.957 115.67,65.986 115.34,65.986 C114.57,65.986 113.891,65.641 113.574,65.066 C113.363,64.705 113.303,64.357 113.289,63.545 L113.289,58.99 C113.289,58.809 113.289,58.764 113.334,58.598 C113.168,58.643 113.123,58.643 112.941,58.643 L111.781,58.643 L111.781,57.498 L112.941,57.498 C113.123,57.498 113.168,57.498 113.334,57.543 C113.289,57.377 113.289,57.332 113.289,57.15 L113.289,55.492 L114.721,55.492 L114.721,57.15" id="Fill-14" fill="#E5EAF0" sketch:type="MSShapeGroup"></path>
            <path d="M118.084,57.498 L119.516,57.498 L119.516,65.791 L118.084,65.791 L118.084,57.498 Z M118.084,54.346 L119.516,54.346 L119.516,56.02 L118.084,56.02 L118.084,54.346 Z" id="Fill-15" fill="#E5EAF0" sketch:type="MSShapeGroup"></path>
            <path d="M128.744,62.941 C128.504,64.871 127.176,66.031 125.201,66.031 C122.895,66.031 121.355,64.268 121.355,61.6 C121.355,59.006 122.939,57.256 125.307,57.256 C127.236,57.256 128.533,58.371 128.744,60.242 L127.281,60.242 C127.146,59.141 126.377,58.432 125.291,58.432 C123.799,58.432 122.895,59.623 122.895,61.6 C122.895,63.574 123.828,64.826 125.291,64.826 C126.348,64.826 127.102,64.117 127.281,62.941 L128.744,62.941" id="Fill-16" fill="#E5EAF0" sketch:type="MSShapeGroup"></path>
            <path d="M135.619,60.904 C135.877,60.904 135.938,60.904 136.162,60.965 C136.072,60.197 135.982,59.865 135.771,59.502 C135.363,58.84 134.594,58.432 133.766,58.432 C132.348,58.432 131.504,59.322 131.322,60.965 C131.533,60.904 131.594,60.904 131.85,60.904 L135.619,60.904 L135.619,60.904 Z M131.67,62.051 C131.488,62.051 131.443,62.051 131.293,61.99 C131.322,62.731 131.412,63.092 131.639,63.529 C132.061,64.299 132.98,64.826 133.932,64.826 C135.047,64.826 135.785,64.283 136.104,63.242 L137.641,63.242 C137.264,65.022 135.906,66.031 133.9,66.031 C131.383,66.031 129.799,64.328 129.799,61.629 C129.799,59.006 131.383,57.256 133.75,57.256 C136.268,57.256 137.641,58.959 137.641,62.051 L131.67,62.051 L131.67,62.051 Z" id="Fill-17" fill="#E5EAF0" sketch:type="MSShapeGroup"></path>
            <path d="M0.803,47.541 L137.814,47.541" id="Stroke-18" stroke="#6F909D" stroke-width="0.6" sketch:type="MSShapeGroup"></path>
            <path d="M0.7,4.432 C1.687,4.432 3.347,5.02 3.347,7.51 L3.347,28.988 C3.347,31.441 1.765,32.07 0.306,32.109 L0.306,32.423 L9.349,32.423 L9.349,32.109 C8.122,32.07 6.271,31.634 6.271,28.988 L6.271,18.166 C8.165,18.166 10.808,18.28 13.767,23.18 L17.163,29.228 C17.204,29.267 17.835,30.25 18.19,30.763 C18.782,31.634 19.097,31.986 19.413,32.423 L24.585,32.423 L24.585,32.109 C23.718,32.029 22.341,31.986 19.731,27.568 L17.163,22.785 C15.94,20.731 14.56,18.911 12.466,17.886 L12.466,17.807 C16.612,17.057 18.427,14.196 18.427,11.237 C18.427,8.472 16.81,4.033 10.134,4.033 L0.306,4.033 L0.306,4.432 L0.7,4.432 L0.7,4.432 Z M6.271,17.412 L6.271,4.941 C6.661,4.862 7.136,4.787 8.042,4.787 C13.731,4.787 15.151,8.669 15.151,11.471 C15.151,15.266 13.171,17.412 7.884,17.412 L6.271,17.412 L6.271,17.412 Z" id="Fill-19" fill="#E5EAF0" sketch:type="MSShapeGroup"></path>
            <path d="M37.616,4.354 C36.157,4.354 34.575,5.02 34.575,7.431 L34.575,28.988 C34.575,31.441 36.354,32.109 37.616,32.109 L37.616,32.423 L28.612,32.423 L28.612,32.109 C29.993,32.109 31.655,31.441 31.655,28.988 L31.655,7.431 C31.655,4.787 29.837,4.354 28.612,4.354 L28.612,4.033 L37.616,4.033 L37.616,4.354" id="Fill-20" fill="#E5EAF0" sketch:type="MSShapeGroup"></path>
            <path d="M52.728,18.269 C57.54,18.269 60.626,20.615 60.626,24.92 C60.626,25.906 60.384,27.523 59.478,28.949 C58.565,30.373 56.87,31.556 53.907,31.556 C49.808,31.556 49.808,29.623 49.808,28.16 L49.808,18.269 L52.728,18.269 L52.728,18.269 Z M54.462,32.423 C54.94,32.423 58.175,32.384 60.147,31.281 C61.687,30.412 63.899,28.357 63.899,25.038 C63.899,22.943 63.028,21.18 61.567,19.835 C59.833,18.217 57.56,17.842 55.216,17.637 L55.216,17.558 C58.688,16.646 61.331,14.48 61.331,10.851 C61.331,7.261 58.093,4.033 53.118,4.033 L43.839,4.033 L43.839,4.354 L44.192,4.354 C45.812,4.354 46.88,5.497 46.88,7.549 L46.88,28.988 C46.88,31.24 45.503,32.109 44.233,32.109 L43.839,32.109 L43.839,32.423 L54.462,32.423 L54.462,32.423 Z M49.808,17.4 L49.808,5.34 C50.315,5.178 51.146,4.905 52.329,4.905 C55.687,4.905 58.054,7.928 58.054,11.403 C58.054,15.076 55.485,16.646 54.897,16.927 C54.345,17.203 53.556,17.4 51.657,17.4 L49.808,17.4 L49.808,17.4 Z" id="Fill-21" fill="#E5EAF0" sketch:type="MSShapeGroup"></path>
            <path d="M76.056,17.274 L79.329,7.261 L79.413,7.261 L82.964,17.274 L76.056,17.274 L76.056,17.274 Z M76.384,4.251 C77.37,4.251 78.284,4.609 78.747,5.493 L71.222,28.091 C70.394,30.582 69.407,31.923 67.431,32.078 L67.431,32.396 L74.431,32.396 L74.431,32.078 C73.247,32.078 72.142,31.839 72.142,30.109 C72.142,29.517 72.405,28.412 72.606,27.816 L75.704,18.347 L83.351,18.347 L86.901,28.369 C86.901,28.412 86.94,28.527 86.979,28.605 C87.257,29.476 87.331,30.109 87.331,30.345 C87.331,32.199 85.595,32.078 84.372,32.078 L84.372,32.396 L93.651,32.396 L93.651,32.078 C92.271,31.962 91.206,31.884 89.821,27.974 L81.335,3.986 L76.388,3.986 L76.384,4.251 L76.384,4.251 Z" id="Fill-22" fill="#E5EAF0" sketch:type="MSShapeGroup"></path>
            <path d="M132.612,7.395 C132.612,7.237 132.794,7.107 132.95,7.036 C133.069,6.977 133.144,6.854 133.155,6.717 C133.29,6.886 133.401,7.15 133.401,7.604 C133.401,8.03 133.224,8.184 133.03,8.212 C132.853,8.235 132.612,8.129 132.612,7.892 C132.612,8.129 132.37,8.235 132.188,8.212 C131.999,8.184 131.827,8.03 131.827,7.604 C131.827,7.15 131.933,6.886 132.067,6.717 C132.079,6.854 132.153,6.977 132.272,7.036 C132.427,7.107 132.612,7.237 132.612,7.395 L132.612,7.395 Z M111.63,7.576 C111.513,7.454 111.351,7.178 111.351,6.748 C111.351,6.29 111.464,6.408 111.464,6.408 C111.571,6.468 111.753,6.539 111.938,6.499 C111.938,6.499 111.591,6.787 111.63,7.576 L111.63,7.576 Z M113.722,6.499 C113.903,6.539 114.089,6.468 114.194,6.408 C114.194,6.408 114.31,6.29 114.31,6.748 C114.31,7.178 114.144,7.454 114.028,7.576 C114.069,6.787 113.722,6.499 113.722,6.499 L113.722,6.499 Z M131.407,7.576 C131.294,7.454 131.128,7.178 131.128,6.748 C131.128,6.29 131.247,6.408 131.247,6.408 C131.349,6.468 131.53,6.539 131.716,6.499 C131.716,6.499 131.368,6.787 131.407,7.576 L131.407,7.576 Z M133.495,6.499 C133.681,6.539 133.862,6.468 133.968,6.408 C133.968,6.408 134.087,6.29 134.087,6.748 C134.087,7.178 133.921,7.454 133.808,7.576 C133.847,6.787 133.495,6.499 133.495,6.499 L133.495,6.499 Z M132.202,6.523 C132.169,6.523 132.138,6.491 132.138,6.46 L132.138,6.006 C132.138,5.971 132.106,5.94 132.075,5.94 L131.313,5.94 C131.286,5.94 131.278,5.899 131.29,5.88 C131.483,5.352 131.999,4.981 132.604,4.981 C133.196,4.981 133.712,5.352 133.905,5.88 C133.917,5.899 133.905,5.94 133.878,5.94 L133.12,5.94 C133.085,5.94 133.058,5.971 133.058,6.006 L133.058,6.46 C133.058,6.491 133.026,6.523 132.995,6.523 L132.202,6.523 L132.202,6.523 Z M133.212,8.57 C133.255,8.566 133.313,8.586 133.341,8.618 L133.368,8.646 C133.397,8.677 133.417,8.736 133.413,8.779 L133.333,9.442 C133.329,9.486 133.29,9.529 133.247,9.533 L132.958,9.564 C132.915,9.572 132.864,9.612 132.849,9.651 L132.655,9.916 C132.624,9.943 132.571,9.943 132.536,9.912 L132.347,9.648 C132.327,9.608 132.276,9.572 132.233,9.564 L131.948,9.533 C131.905,9.529 131.866,9.486 131.862,9.442 L131.786,8.779 C131.782,8.736 131.802,8.677 131.831,8.646 L131.851,8.618 C131.882,8.586 131.94,8.563 131.983,8.566 C132.454,8.63 132.769,8.618 133.212,8.57 L133.212,8.57 Z M112.837,7.395 C112.837,7.237 113.019,7.107 113.177,7.036 C113.296,6.977 113.366,6.854 113.378,6.717 C113.517,6.886 113.626,7.15 113.626,7.604 C113.626,8.03 113.448,8.184 113.265,8.212 C113.079,8.235 112.837,8.129 112.837,7.892 C112.837,8.129 112.601,8.235 112.415,8.212 C112.226,8.184 112.048,8.03 112.048,7.604 C112.048,7.15 112.159,6.886 112.294,6.717 C112.306,6.854 112.38,6.977 112.499,7.036 C112.651,7.107 112.837,7.237 112.837,7.395 L112.837,7.395 Z M112.849,6.523 L112.454,6.523 C112.419,6.523 112.392,6.491 112.392,6.46 L112.392,6.006 C112.392,5.971 112.364,5.94 112.329,5.94 L111.567,5.94 C111.54,5.94 111.532,5.899 111.54,5.88 C111.737,5.352 112.253,4.981 112.849,4.981 C113.448,4.981 113.966,5.352 114.159,5.88 C114.167,5.899 114.163,5.94 114.132,5.94 L113.374,5.94 C113.343,5.94 113.312,5.971 113.312,6.006 L113.312,6.46 C113.312,6.491 113.284,6.523 113.247,6.523 L112.849,6.523 L112.849,6.523 Z M113.466,8.566 C113.509,8.563 113.563,8.586 113.599,8.618 L113.618,8.646 C113.646,8.677 113.671,8.736 113.667,8.779 L113.583,9.442 C113.583,9.486 113.544,9.529 113.497,9.533 L113.216,9.564 C113.173,9.572 113.122,9.608 113.103,9.648 L112.909,9.912 C112.878,9.943 112.825,9.943 112.794,9.916 L112.601,9.651 C112.581,9.612 112.53,9.572 112.487,9.564 L112.198,9.533 C112.159,9.529 112.116,9.486 112.116,9.442 L112.036,8.779 C112.032,8.736 112.048,8.677 112.085,8.646 L112.104,8.618 C112.136,8.586 112.194,8.566 112.237,8.57 C112.685,8.618 112.995,8.63 113.466,8.566 L113.466,8.566 Z M111.614,31.336 L111.614,31.332 C111.618,31.332 111.63,31.332 111.614,31.336 L111.614,31.336 Z M133.835,31.332 C133.831,31.332 133.831,31.336 133.831,31.336 C133.823,31.332 133.827,31.332 133.835,31.332 L133.835,31.332 Z M131.894,18.532 C131.778,18.647 131.778,18.766 131.778,18.951 L131.778,20.422 C131.55,20.158 130.888,19.996 130.358,19.957 C129.692,19.909 128.997,20.071 128.646,20.328 C128.497,20.439 128.39,20.592 128.331,20.758 C127.964,20.899 127.874,21.361 127.866,21.614 C127.845,22.104 127.921,22.825 127.987,23.081 C128.063,23.334 128.03,23.547 127.628,23.642 C127.245,23.729 126.892,23.78 126.485,23.709 C126.308,23.682 125.972,23.464 125.743,23.263 C125.7,23.152 125.62,23.026 125.573,22.943 C125.558,22.864 125.526,22.781 125.474,22.711 C125.735,22.363 125.712,21.949 125.45,21.756 C125.372,21.704 125.28,21.677 125.194,21.673 C124.919,21.255 124.591,21.104 124.429,21.104 C124.394,21.104 124.362,21.112 124.331,21.117 L124.331,15.029 C124.343,15.033 124.354,15.033 124.362,15.033 C124.878,15.045 125.19,14.426 125.19,14.426 C125.399,14.02 125.628,13.885 125.774,13.834 C125.937,13.778 126.146,13.763 126.687,13.881 C127.14,13.979 127.562,14.02 127.905,13.999 C128.071,13.991 128.216,13.976 128.354,13.956 C128.702,14.023 129.427,14.2 129.976,14.587 C130.106,14.701 130.296,14.895 130.296,15.041 C130.296,15.207 130.331,15.629 130.374,15.774 C130.427,15.929 130.552,16.031 130.599,16.078 C130.599,16.078 130.47,16.544 131.009,16.816 C131.009,16.816 131.046,17.325 131.614,17.432 C131.614,17.432 131.452,17.735 131.987,17.898 C131.987,17.898 131.999,18.103 132.06,18.162 C132.06,18.323 132.013,18.418 131.894,18.532 L131.894,18.532 Z M121.013,21.104 C120.858,21.104 120.53,21.255 120.255,21.673 C120.163,21.677 120.073,21.704 119.999,21.756 C119.737,21.949 119.714,22.363 119.976,22.711 C119.923,22.781 119.892,22.864 119.876,22.943 C119.829,23.026 119.745,23.152 119.706,23.263 C119.478,23.464 119.142,23.682 118.964,23.709 C118.558,23.78 118.204,23.729 117.821,23.642 C117.423,23.547 117.386,23.334 117.458,23.081 C117.524,22.825 117.604,22.104 117.583,21.614 C117.571,21.361 117.489,20.899 117.122,20.758 C117.06,20.592 116.956,20.439 116.802,20.328 C116.452,20.071 115.753,19.909 115.087,19.957 C114.562,19.996 113.896,20.158 113.671,20.422 L113.671,18.951 C113.671,18.766 113.671,18.647 113.552,18.532 C113.437,18.418 113.39,18.323 113.39,18.162 C113.448,18.103 113.462,17.898 113.462,17.898 C113.993,17.735 113.835,17.432 113.835,17.432 C114.403,17.325 114.442,16.816 114.442,16.816 C114.976,16.544 114.851,16.078 114.851,16.078 C114.897,16.031 115.026,15.929 115.071,15.774 C115.114,15.629 115.153,15.207 115.153,15.041 C115.153,14.895 115.343,14.701 115.47,14.587 C116.021,14.2 116.747,14.023 117.095,13.956 C117.233,13.976 117.378,13.991 117.54,13.999 C117.888,14.02 118.31,13.979 118.767,13.881 C119.304,13.763 119.517,13.778 119.671,13.834 C119.821,13.885 120.05,14.02 120.259,14.426 C120.259,14.426 120.567,15.045 121.083,15.033 C121.095,15.033 121.106,15.033 121.114,15.029 L121.114,21.117 C121.083,21.112 121.052,21.104 121.013,21.104 L121.013,21.104 Z M142.905,8.957 C141.687,8.957 141.208,10.098 141.026,10.527 C140.423,11.964 140.403,14.615 140.384,17.176 L140.38,17.602 L140.368,18.501 C140.353,19.642 140.052,20.509 139.476,21.066 C138.896,21.626 138.245,21.689 137.993,21.689 C136.759,21.689 135.878,20.568 135.571,19.633 L135.571,19.097 C135.571,18.679 135.255,18.557 135.151,18.505 L135.151,10.736 L134.655,10.736 L134.655,10.275 L135.165,10.275 L135.165,9.932 L134.655,9.932 L134.655,9.518 L135.165,9.518 L135.165,9.174 L134.655,9.174 L134.655,8.736 L135.165,8.736 L135.165,8.394 L134.655,8.394 L134.655,7.959 L135.165,7.959 L135.165,7.612 L134.655,7.612 L134.655,7.17 L135.165,7.17 L135.165,6.827 L134.655,6.827 C134.647,6.689 134.64,6.555 134.62,6.421 L135.151,6.365 L135.104,6.026 L134.569,6.125 C134.548,5.998 134.509,5.876 134.47,5.762 L134.954,5.517 L134.79,5.213 L134.351,5.474 C134.3,5.359 134.226,5.245 134.153,5.143 L134.485,4.811 L134.237,4.574 L133.944,4.909 C133.835,4.807 133.712,4.72 133.573,4.649 L133.751,4.271 L133.433,4.136 L133.286,4.534 C133.144,4.487 132.985,4.46 132.817,4.443 L132.833,4.029 L132.489,4.029 L132.501,4.436 C132.331,4.443 132.173,4.468 132.028,4.507 L131.89,4.136 L131.569,4.271 L131.728,4.613 C131.589,4.685 131.46,4.768 131.345,4.87 L131.077,4.555 L130.829,4.791 L131.128,5.091 C131.042,5.193 130.962,5.312 130.896,5.439 L130.505,5.201 L130.339,5.505 L130.769,5.718 C130.718,5.845 130.683,5.971 130.644,6.104 L130.177,6.026 L130.13,6.365 L130.583,6.408 C130.563,6.547 130.548,6.685 130.544,6.827 L130.099,6.827 L130.099,7.17 L130.532,7.17 L130.532,7.612 L130.099,7.612 L130.099,7.959 L130.532,7.959 L130.532,8.394 L130.099,8.394 L130.099,8.736 L130.532,8.736 L130.532,9.17 L130.099,9.174 L130.099,9.518 L130.532,9.518 L130.532,9.932 L130.099,9.932 L130.099,10.275 L130.532,10.275 L130.532,10.74 L130.095,10.74 L130.091,11.123 C130.091,11.123 129.515,11.494 129.187,12.011 C129.005,11.979 128.8,11.987 128.583,12.047 C128.095,12.189 127.376,12.33 126.862,12.33 C126.347,12.33 126.046,12.228 125.894,11.995 C125.798,11.846 125.751,11.608 125.612,11.392 C125.519,11.241 125.341,11.104 125.108,11.021 C125.108,11.021 124.946,10.409 124.362,10.394 L124.331,10.394 L124.331,5.722 C124.626,5.702 124.862,5.462 124.862,5.154 C124.862,5.012 124.808,4.882 124.726,4.787 L125.485,4.787 L126.497,1.422 C126.497,1.422 126.007,1.264 125.466,1.161 L125.226,2.199 C125.226,2.199 124.931,2.148 124.657,2.085 L124.464,3.17 C124.464,3.17 124.019,3.213 123.714,3.17 L123.864,2.061 C123.864,2.061 123.542,2.076 123.419,2.068 L123.558,0.672 C123.558,0.672 123.063,0.629 122.737,0.629 C122.409,0.629 121.915,0.672 121.915,0.672 L122.054,2.068 C121.931,2.076 121.612,2.061 121.612,2.061 L121.763,3.17 C121.454,3.213 121.005,3.17 121.005,3.17 L120.815,2.085 C120.546,2.148 120.247,2.199 120.247,2.199 L120.007,1.161 C119.462,1.264 118.976,1.422 118.976,1.422 L119.987,4.787 L120.708,4.787 C120.622,4.882 120.567,5.012 120.567,5.154 C120.567,5.462 120.815,5.714 121.114,5.726 L121.114,10.394 L121.083,10.394 C120.503,10.409 120.341,11.021 120.341,11.021 C120.108,11.104 119.927,11.241 119.833,11.392 C119.698,11.608 119.651,11.846 119.552,11.995 C119.403,12.228 119.099,12.33 118.585,12.33 C118.073,12.33 117.354,12.189 116.866,12.047 C116.649,11.987 116.444,11.979 116.263,12.011 C115.935,11.494 115.401,11.123 115.401,11.123 L115.394,10.729 L114.917,10.729 L114.917,10.275 L115.378,10.275 L115.378,9.932 L114.917,9.932 L114.917,9.518 L115.378,9.518 L115.378,9.174 L114.917,9.174 L114.917,8.736 L115.378,8.736 L115.378,8.394 L114.917,8.394 L114.917,7.959 L115.378,7.959 L115.378,7.612 L114.917,7.612 L114.917,7.17 L115.378,7.17 L115.378,6.827 L114.909,6.827 C114.901,6.689 114.886,6.551 114.866,6.416 L115.366,6.365 L115.319,6.026 L114.806,6.116 C114.774,5.99 114.735,5.872 114.692,5.758 L115.169,5.517 L115.007,5.213 L114.573,5.474 C114.511,5.355 114.438,5.249 114.36,5.143 L114.7,4.811 L114.442,4.574 L114.155,4.913 C114.044,4.811 113.919,4.72 113.788,4.649 L113.962,4.271 L113.646,4.136 L113.501,4.53 C113.354,4.483 113.196,4.456 113.026,4.443 L113.046,4.029 L112.704,4.029 L112.72,4.44 C112.546,4.448 112.384,4.468 112.241,4.507 L112.101,4.136 L111.784,4.271 L111.946,4.613 C111.8,4.685 111.669,4.764 111.556,4.862 L111.292,4.555 L111.042,4.791 L111.339,5.087 C111.251,5.193 111.177,5.312 111.11,5.439 L110.728,5.201 L110.554,5.505 L110.991,5.722 C110.948,5.849 110.909,5.979 110.88,6.108 L110.392,6.026 L110.345,6.365 L110.829,6.412 C110.81,6.551 110.802,6.689 110.794,6.827 L110.313,6.827 L110.313,7.17 L110.79,7.17 L110.79,7.612 L110.313,7.612 L110.313,7.959 L110.79,7.959 L110.79,8.394 L110.313,8.394 L110.313,8.736 L110.79,8.736 L110.79,9.17 L110.313,9.174 L110.313,9.518 L110.79,9.518 L110.79,9.928 L110.313,9.932 L110.313,10.275 L110.79,10.275 L110.79,10.729 L110.292,10.729 L110.292,18.505 C110.19,18.557 109.878,18.679 109.878,19.097 L109.878,19.633 C109.567,20.568 108.69,21.689 107.46,21.689 C107.204,21.689 106.548,21.626 105.974,21.066 C105.394,20.509 105.089,19.642 105.081,18.501 L105.065,17.602 L105.065,17.176 C105.046,14.615 105.026,11.964 104.419,10.527 C104.241,10.098 103.759,8.957 102.54,8.957 C102.003,8.957 101.581,9.344 101.581,9.833 C101.581,10.314 101.972,10.705 102.454,10.705 C102.556,10.705 102.651,10.689 102.753,10.649 L102.765,10.649 C102.765,10.649 102.804,10.634 102.8,10.634 C103.167,10.5 103.425,10.607 103.614,10.982 C104.177,12.117 104.198,14.69 104.214,16.761 C104.214,16.761 104.218,17.613 104.218,17.609 L104.229,18.548 C104.265,21.725 106.276,22.572 107.46,22.572 C108.048,22.572 108.534,22.485 108.968,22.261 C109.204,22.166 109.862,22.013 109.997,22.036 C109.997,22.986 109.819,24.94 110.036,25.925 C110.087,26.179 110.14,26.365 110.21,26.502 C109.769,26.505 109.39,26.586 109.142,26.699 C108.88,26.814 108.755,26.779 108.62,26.695 C108.481,26.609 108.272,26.521 108.071,26.578 C107.374,26.752 107.681,27.72 107.765,28.115 C107.851,28.505 107.827,29.066 107.8,29.99 C107.776,30.795 107.854,31.316 107.913,31.623 C108.06,32.298 108.687,32.447 109.097,32.404 C109.39,32.377 109.591,32.226 109.7,32.078 C109.915,32.164 110.024,32.326 110.04,32.404 C110.067,32.546 110.108,32.55 110.163,32.496 C110.226,32.42 110.245,32.353 110.249,32.226 C110.249,32.156 110.237,32.056 110.202,31.966 C110.31,31.908 110.292,31.955 110.368,31.859 C110.403,31.812 110.515,31.851 110.601,31.92 C110.683,31.97 110.876,32.121 110.972,32.38 C111.034,32.535 111.196,32.392 111.251,32.226 C111.282,32.128 111.282,31.962 111.267,31.804 C111.386,31.839 111.626,31.959 111.718,32.334 C111.745,32.461 111.698,32.562 111.839,32.455 C111.981,32.353 112.071,32.037 112.048,31.843 C112.017,31.591 111.839,31.386 111.614,31.336 C111.61,31.336 111.614,31.332 111.614,31.332 C111.382,30.845 111.026,30.744 110.821,30.689 C110.7,30.66 110.485,30.66 110.288,30.716 C109.962,30.705 109.437,30.625 109.386,30.277 C109.331,29.923 109.319,29.449 109.335,29.271 C109.351,28.968 109.63,28.625 109.753,28.502 C109.874,28.384 109.95,28.326 110.249,28.357 C110.546,28.392 111.405,28.699 112.001,28.64 C112.466,28.597 113.015,28.265 112.886,27.128 C113.212,26.462 113.413,25.477 113.413,24.829 C113.413,24.17 113.39,23.607 113.335,23.149 C113.501,23.299 113.804,23.334 114.415,23.334 C114.743,23.334 115.142,23.224 115.394,23.081 C115.655,22.94 115.726,23.058 115.745,23.267 C115.812,24.06 115.687,24.928 115.687,24.928 C115.675,25.106 115.71,25.307 115.837,25.386 C115.962,25.465 116.12,25.448 116.271,25.394 C116.437,25.322 116.696,25.366 116.89,25.354 C117.226,25.334 117.474,25.272 118.007,25.243 C118.491,25.22 119.659,25.295 120.22,25.295 C120.692,25.295 120.974,24.98 121.114,24.715 L121.114,28.921 C120.815,28.933 120.567,29.185 120.567,29.488 C120.567,29.689 120.669,29.863 120.827,29.97 L120.019,29.97 L120.019,32.443 L125.392,32.443 L125.392,29.97 L124.606,29.97 C124.761,29.863 124.862,29.689 124.862,29.488 C124.862,29.189 124.626,28.941 124.331,28.925 L124.331,24.711 C124.476,24.98 124.757,25.295 125.229,25.295 C125.786,25.295 126.954,25.22 127.442,25.243 C127.972,25.272 128.224,25.334 128.56,25.354 C128.749,25.366 129.013,25.322 129.179,25.394 C129.329,25.448 129.483,25.465 129.612,25.386 C129.739,25.307 129.774,25.106 129.759,24.928 C129.759,24.928 129.638,24.06 129.7,23.267 C129.724,23.058 129.794,22.94 130.052,23.081 C130.312,23.224 130.71,23.334 131.034,23.334 C131.642,23.334 131.944,23.299 132.114,23.149 C132.06,23.607 132.036,24.17 132.036,24.829 C132.036,25.477 132.237,26.462 132.567,27.128 C132.431,28.265 132.985,28.597 133.444,28.64 C134.04,28.699 134.903,28.392 135.2,28.357 C135.499,28.326 135.575,28.384 135.696,28.502 C135.819,28.625 136.095,28.968 136.118,29.271 C136.126,29.449 136.118,29.923 136.063,30.277 C136.009,30.625 135.483,30.705 135.155,30.716 C134.964,30.66 134.749,30.66 134.62,30.689 C134.423,30.744 134.063,30.845 133.835,31.332 C133.835,31.332 133.835,31.336 133.831,31.336 C133.61,31.386 133.429,31.591 133.401,31.843 C133.376,32.037 133.468,32.353 133.61,32.455 C133.747,32.562 133.7,32.461 133.731,32.334 C133.823,31.959 134.063,31.839 134.183,31.804 C134.161,31.962 134.165,32.128 134.198,32.226 C134.253,32.392 134.419,32.535 134.478,32.38 C134.573,32.121 134.771,31.97 134.849,31.92 C134.931,31.851 135.042,31.812 135.081,31.859 C135.151,31.955 135.136,31.908 135.243,31.966 C135.216,32.056 135.2,32.156 135.2,32.226 C135.2,32.353 135.224,32.42 135.286,32.496 C135.337,32.55 135.382,32.546 135.413,32.404 C135.425,32.326 135.534,32.164 135.747,32.078 C135.858,32.226 136.06,32.377 136.349,32.404 C136.767,32.447 137.394,32.298 137.532,31.623 C137.595,31.316 137.669,30.795 137.646,29.99 C137.622,29.066 137.595,28.505 137.681,28.115 C137.765,27.72 138.075,26.752 137.378,26.578 C137.173,26.521 136.964,26.609 136.829,26.695 C136.694,26.779 136.565,26.814 136.308,26.699 C136.056,26.586 135.681,26.505 135.235,26.502 C135.31,26.365 135.362,26.179 135.417,25.925 C135.634,24.94 135.456,22.986 135.456,22.036 C135.587,22.013 136.241,22.166 136.481,22.261 C136.911,22.485 137.397,22.572 137.993,22.572 C139.169,22.572 141.181,21.725 141.22,18.548 L141.228,17.609 C141.228,17.613 141.235,16.761 141.235,16.761 C141.251,14.69 141.271,12.117 141.835,10.982 C142.028,10.607 142.278,10.5 142.647,10.634 C142.64,10.634 142.681,10.649 142.681,10.649 L142.692,10.649 C142.794,10.689 142.894,10.705 142.991,10.705 C143.478,10.705 143.868,10.314 143.868,9.833 C143.868,9.344 143.446,8.957 142.905,8.957 L142.905,8.957 Z" id="Fill-23" fill="#E5EAF0" sketch:type="MSShapeGroup"></path>
        </g>
    </g>
</svg>